<?xml version="1.0" encoding="utf-8"?>
<!-- Generator: Adobe Illustrator 27.9.0, SVG Export Plug-In . SVG Version: 6.00 Build 0)  -->
<svg version="1.1" id="Layer_1" xmlns="http://www.w3.org/2000/svg" xmlns:xlink="http://www.w3.org/1999/xlink" x="0px" y="0px"
	 viewBox="0 0 1500 1500" style="enable-background:new 0 0 1500 1500;" xml:space="preserve">
<style type="text/css">
	.st0{fill:#FFFFFF;}
	.st1{fill:#FFC20E;}
</style>
<g>
	<path class="st0" d="M839.8,734.61v117.78c0,6.36-5.16,11.52-11.52,11.52h-13.02c-6.37,0-11.54-5.17-11.54-11.54v-96.88
		c0-3.24-3.9-4.85-6.2-2.56l-101.5,101.5c-8.92,8.92-22.21,11.56-33.86,6.73c-11.63-4.81-19.19-16.09-19.19-28.69v-78.8
		c0-3.23-3.9-4.84-6.18-2.56l-97.33,97.33l-13.87,13.87c-3.35,3.35-9.09,0.98-9.09-3.76v-32.11c0-3.89,1.55-7.62,4.3-10.37
		l105.23-105.23c9.25-9.25,23.19-11.75,35.13-6.18c11.1,5.19,17.89,16.64,17.89,28.88v78.06c0,3.24,3.92,4.87,6.23,2.56l101.5-101.5
		c8.92-8.94,22.21-11.58,33.86-6.73C832.28,710.74,839.8,722.01,839.8,734.61z"/>
	<path class="st0" d="M488.35,734.61v120.13c0,5.06-4.1,9.16-9.16,9.16h-17.76c-5.06,0-9.16-4.1-9.16-9.16v-99.26
		c0-3.24-3.91-4.85-6.2-2.56l-101.51,101.5c-8.92,8.92-22.2,11.57-33.85,6.73c-11.65-4.81-19.19-16.09-19.19-28.69v-78.8
		c0-3.24-3.91-4.87-6.2-2.57L177.79,858.62c-1.7,1.68-3.68,3.01-5.84,3.91c-2.18,0.9-4.51,1.37-6.91,1.37h-18.04
		c-9.96,0-18.04-8.08-18.04-18.04V712.88c0-6.37,5.16-11.53,11.53-11.53h13.02c6.37,0,11.53,5.16,11.53,11.53v98.7
		c0,3.24,3.91,4.85,6.21,2.57l103.32-103.34c9.25-9.24,23.18-11.74,35.13-6.17c11.1,5.18,17.9,16.65,17.9,28.9v78.04
		c0,3.24,3.91,4.85,6.21,2.57l101.51-101.51c8.91-8.92,22.2-11.57,33.85-6.73C480.82,710.74,488.35,722,488.35,734.61z"/>
	<path class="st0" d="M891.63,863.91h13.02c6.37,0,11.53-5.16,11.53-11.53v-139.5c0-6.37-5.16-11.53-11.53-11.53h-13.02
		c-6.37,0-11.53,5.16-11.53,11.53v139.5C880.1,858.74,885.26,863.91,891.63,863.91z"/>
	<path class="st0" d="M1103.83,701.34H968.01c-6.37,0-11.53,5.16-11.53,11.53v139.5c0,6.37,5.16,11.53,11.53,11.53h133.37
		c6.39,0,12.77-0.9,18.86-2.85c33.32-10.68,57.51-41.97,57.51-78.79c0-34.58-21.31-64.27-51.5-76.6
		C1119.14,702.76,1111.51,701.34,1103.83,701.34z M1094.08,830.82h-89.98c-6.37,0-11.53-5.16-11.53-11.53v-74.06
		c0-6.37,5.16-11.53,11.53-11.53h90.93c27.15,0,49.17,22.37,48.56,49.67C1143.01,809.91,1120.64,830.82,1094.08,830.82z"/>
	<path class="st0" d="M1305.5,701.34c-5.53-1.19-11.27-1.8-17.17-1.8c-5.88,0-11.62,0.61-17.17,1.8
		c-37.4,7.92-65.54,41.19-65.54,80.92c0,41.07,30.08,75.25,69.38,81.64c4.34,0.7,8.79,1.08,13.33,1.08s9-0.38,13.35-1.08
		c39.28-6.39,69.38-40.57,69.38-81.64C1371.05,742.53,1342.91,709.26,1305.5,701.34z M1336.81,785.4
		c-1.53,24.16-21.11,43.77-45.26,45.32c-29.3,1.9-53.55-22.35-51.67-51.64c1.55-24.15,21.13-43.74,45.28-45.29
		C1314.42,731.92,1338.66,756.14,1336.81,785.4z"/>
	<path class="st1" d="M153.45,671.09h-12.92c-6.37,0-11.58-5.21-11.58-11.58v-12.92c0-6.37,5.21-11.58,11.58-11.58h12.92
		c6.37,0,11.58,5.21,11.58,11.58v12.92C165.03,665.88,159.82,671.09,153.45,671.09z"/>
	<path class="st1" d="M904.6,671.09h-12.92c-6.37,0-11.58-5.21-11.58-11.58v-12.92c0-6.37,5.21-11.58,11.58-11.58h12.92
		c6.37,0,11.58,5.21,11.58,11.58v12.92C916.18,665.88,910.97,671.09,904.6,671.09z"/>
</g>
</svg>
